<svg width="60" height="60" viewBox="0 0 60 60" fill="none" xmlns="http://www.w3.org/2000/svg">
<path d="M30 0C13.4531 0 0 13.4531 0 30C0 46.5469 13.4531 60 30 60C46.5469 60 60 46.5469 60 30C60 13.4531 46.5469 0 30 0Z" fill="#36EEC4" fill-opacity="0.2"/>
<path fill-rule="evenodd" clip-rule="evenodd" d="M14.0381 27.584C14.7273 26.8948 15.8446 26.8948 16.5338 27.584L26.9677 38.0179L44.0172 20.9872C44.7068 20.2984 45.8241 20.299 46.5129 20.9886C47.2017 21.6781 47.2011 22.7955 46.5115 23.4842L26.9663 43.0079L14.0381 30.0796C13.349 29.3905 13.349 28.2731 14.0381 27.584Z" fill="#36EEC4"/>
</svg>
