<svg width="326" height="58" viewBox="0 0 326 58" fill="none" xmlns="http://www.w3.org/2000/svg">
<g filter="url(#filter0_dd)">
<path d="M13.312 30.816H9.62V46H2.496V9.6H9.62V24.472H13.312L21.632 9.6H29.744L19.5 27.176L31.044 46H22.256L13.312 30.816ZM48.3397 20H58.0117V38.096C58.0117 38.824 58.0117 39.552 58.0117 40.28H61.9637V46H53.7477L52.5517 42.152H52.3437C51.5464 43.4693 50.3504 44.5613 48.7557 45.428C47.161 46.2947 45.393 46.728 43.4517 46.728C42.1344 46.728 40.921 46.5547 39.8117 46.208C38.737 45.8613 37.8184 45.2893 37.0557 44.492C36.293 43.6947 35.7037 42.62 35.2877 41.268C34.8717 39.916 34.6637 38.2173 34.6637 36.172V25.72H31.6997V20H41.4237V34.768C41.4237 36.8827 41.753 38.408 42.4117 39.344C43.105 40.28 44.1797 40.748 45.6357 40.748C46.9184 40.748 48.0624 40.3667 49.0677 39.604C50.1077 38.8413 50.8357 37.9053 51.2517 36.796V25.72H48.3397V20ZM61.6834 9.6H72.4474V22.08H72.6554C73.3834 21.248 74.354 20.5893 75.5674 20.104C76.8154 19.6187 78.3407 19.376 80.1434 19.376C83.5754 19.376 86.314 20.4507 88.3594 22.6C90.4394 24.7493 91.4794 27.9907 91.4794 32.324C91.4794 34.6467 91.1327 36.7093 90.4394 38.512C89.746 40.28 88.758 41.7707 87.4754 42.984C86.2274 44.1627 84.6847 45.064 82.8474 45.688C81.0447 46.312 78.9994 46.624 76.7114 46.624C74.0074 46.624 71.7367 46.312 69.8994 45.688C68.0967 45.064 66.6927 44.44 65.6874 43.816V15.32H61.6834V9.6ZM78.2714 25.096C77.786 25.096 77.2487 25.1827 76.6594 25.356C76.07 25.5293 75.498 25.772 74.9434 26.084C74.4234 26.396 73.9207 26.7947 73.4354 27.28C72.9847 27.7307 72.6554 28.2507 72.4474 28.84V39.656C73.002 39.9333 73.7647 40.2107 74.7354 40.488C75.706 40.7653 76.746 40.904 77.8554 40.904C78.7567 40.904 79.606 40.748 80.4034 40.436C81.2354 40.0893 81.946 39.5693 82.5354 38.876C83.1594 38.1827 83.6447 37.316 83.9914 36.276C84.338 35.236 84.5114 33.988 84.5114 32.532C84.5114 30.0707 83.974 28.216 82.8994 26.968C81.8594 25.72 80.3167 25.096 78.2714 25.096ZM121.307 43.244C120.856 43.66 120.267 44.076 119.539 44.492C118.846 44.8733 118.014 45.2373 117.043 45.584C116.107 45.9307 115.067 46.208 113.923 46.416C112.779 46.624 111.566 46.728 110.283 46.728C108.064 46.728 106.071 46.416 104.303 45.792C102.57 45.168 101.096 44.2667 99.8831 43.088C98.6697 41.8747 97.7337 40.436 97.0751 38.772C96.4511 37.0733 96.1391 35.1493 96.1391 33C96.1391 30.712 96.5031 28.7187 97.2311 27.02C97.9591 25.2867 98.9471 23.848 100.195 22.704C101.478 21.56 102.968 20.7107 104.667 20.156C106.366 19.5667 108.203 19.272 110.179 19.272C111.496 19.272 112.848 19.4453 114.235 19.792C115.656 20.1387 116.956 20.7453 118.135 21.612C119.314 22.444 120.267 23.5707 120.995 24.992C121.758 26.4133 122.139 28.216 122.139 30.4C122.139 31.8907 121.966 33.5027 121.619 35.236H102.899C102.934 36.3453 103.159 37.2813 103.575 38.044C104.026 38.8067 104.598 39.4307 105.291 39.916C106.019 40.4013 106.834 40.7653 107.735 41.008C108.671 41.216 109.659 41.32 110.699 41.32C112.779 41.32 114.478 41.0773 115.795 40.592C117.147 40.1067 118.239 39.5173 119.071 38.824L121.307 43.244ZM110.075 24.68C109.174 24.68 108.324 24.8013 107.527 25.044C106.73 25.2867 106.002 25.6507 105.343 26.136C104.719 26.5867 104.199 27.1587 103.783 27.852C103.367 28.5453 103.124 29.3253 103.055 30.192H115.847C115.847 28.4933 115.362 27.1587 114.391 26.188C113.455 25.1827 112.016 24.68 110.075 24.68ZM126.747 40.28H133.195V25.72H126.747V20H138.447L139.227 23.432H139.435C140.405 22.288 141.515 21.3347 142.763 20.572C144.011 19.8093 145.467 19.428 147.131 19.428C149.211 19.428 150.84 20.1907 152.019 21.716C153.232 23.2413 153.839 25.7893 153.839 29.36H147.755C147.755 28.112 147.564 27.2107 147.183 26.656C146.836 26.0667 146.264 25.772 145.467 25.772C144.08 25.772 142.953 26.1187 142.087 26.812C141.255 27.5053 140.544 28.3027 139.955 29.204V40.28H151.239V46H126.747V40.28ZM156.522 20H165.622L166.402 23.432H166.61C167.408 22.3227 168.552 21.352 170.042 20.52C171.533 19.688 173.318 19.272 175.398 19.272C176.681 19.272 177.877 19.4453 178.986 19.792C180.13 20.1387 181.101 20.7107 181.898 21.508C182.696 22.3053 183.32 23.3973 183.77 24.784C184.256 26.136 184.498 27.8173 184.498 29.828V46H177.738V31.232C177.738 29.1173 177.253 27.592 176.282 26.656C175.346 25.72 174.15 25.252 172.694 25.252C171.412 25.252 170.233 25.6333 169.158 26.396C168.118 27.124 167.408 28.0427 167.026 29.152V46H160.266V25.72H156.522V20ZM214.846 43.244C214.395 43.66 213.806 44.076 213.078 44.492C212.385 44.8733 211.553 45.2373 210.582 45.584C209.646 45.9307 208.606 46.208 207.462 46.416C206.318 46.624 205.105 46.728 203.822 46.728C201.603 46.728 199.61 46.416 197.842 45.792C196.109 45.168 194.635 44.2667 193.422 43.088C192.209 41.8747 191.273 40.436 190.614 38.772C189.99 37.0733 189.678 35.1493 189.678 33C189.678 30.712 190.042 28.7187 190.77 27.02C191.498 25.2867 192.486 23.848 193.734 22.704C195.017 21.56 196.507 20.7107 198.206 20.156C199.905 19.5667 201.742 19.272 203.718 19.272C205.035 19.272 206.387 19.4453 207.774 19.792C209.195 20.1387 210.495 20.7453 211.674 21.612C212.853 22.444 213.806 23.5707 214.534 24.992C215.297 26.4133 215.678 28.216 215.678 30.4C215.678 31.8907 215.505 33.5027 215.158 35.236H196.438C196.473 36.3453 196.698 37.2813 197.114 38.044C197.565 38.8067 198.137 39.4307 198.83 39.916C199.558 40.4013 200.373 40.7653 201.274 41.008C202.21 41.216 203.198 41.32 204.238 41.32C206.318 41.32 208.017 41.0773 209.334 40.592C210.686 40.1067 211.778 39.5173 212.61 38.824L214.846 43.244ZM203.614 24.68C202.713 24.68 201.863 24.8013 201.066 25.044C200.269 25.2867 199.541 25.6507 198.882 26.136C198.258 26.5867 197.738 27.1587 197.322 27.852C196.906 28.5453 196.663 29.3253 196.594 30.192H209.386C209.386 28.4933 208.901 27.1587 207.93 26.188C206.994 25.1827 205.555 24.68 203.614 24.68ZM224.29 25.72H219.142V20H224.29V14.072L231.05 12.148V20H244.674V25.72H231.05V33.156C231.05 35.8253 231.552 37.7667 232.558 38.98C233.563 40.1587 234.967 40.748 236.77 40.748C237.706 40.748 238.555 40.644 239.318 40.436C240.08 40.1933 240.756 39.8987 241.346 39.552C241.97 39.2053 242.524 38.824 243.01 38.408C243.53 37.992 243.998 37.6107 244.414 37.264L247.534 41.944C246.944 42.6373 246.199 43.2787 245.298 43.868C244.431 44.4227 243.478 44.9253 242.438 45.376C241.432 45.792 240.375 46.1213 239.266 46.364C238.156 46.6067 237.064 46.728 235.99 46.728C232.107 46.728 229.178 45.6533 227.202 43.504C225.26 41.32 224.29 37.8707 224.29 33.156V25.72ZM277.206 43.244C276.755 43.66 276.166 44.076 275.438 44.492C274.744 44.8733 273.912 45.2373 272.942 45.584C272.006 45.9307 270.966 46.208 269.822 46.416C268.678 46.624 267.464 46.728 266.182 46.728C263.963 46.728 261.97 46.416 260.202 45.792C258.468 45.168 256.995 44.2667 255.782 43.088C254.568 41.8747 253.632 40.436 252.974 38.772C252.35 37.0733 252.038 35.1493 252.038 33C252.038 30.712 252.402 28.7187 253.13 27.02C253.858 25.2867 254.846 23.848 256.094 22.704C257.376 21.56 258.867 20.7107 260.566 20.156C262.264 19.5667 264.102 19.272 266.078 19.272C267.395 19.272 268.747 19.4453 270.134 19.792C271.555 20.1387 272.855 20.7453 274.034 21.612C275.212 22.444 276.166 23.5707 276.893 24.992C277.656 26.4133 278.038 28.216 278.038 30.4C278.038 31.8907 277.864 33.5027 277.518 35.236H258.798C258.832 36.3453 259.058 37.2813 259.474 38.044C259.924 38.8067 260.496 39.4307 261.19 39.916C261.918 40.4013 262.732 40.7653 263.634 41.008C264.57 41.216 265.558 41.32 266.598 41.32C268.678 41.32 270.376 41.0773 271.694 40.592C273.046 40.1067 274.138 39.5173 274.97 38.824L277.206 43.244ZM265.974 24.68C265.072 24.68 264.223 24.8013 263.426 25.044C262.628 25.2867 261.9 25.6507 261.242 26.136C260.618 26.5867 260.098 27.1587 259.682 27.852C259.266 28.5453 259.023 29.3253 258.954 30.192H271.746C271.746 28.4933 271.26 27.1587 270.29 26.188C269.354 25.1827 267.915 24.68 265.974 24.68ZM301.521 38.824C301.521 38.1307 301.088 37.576 300.221 37.16C299.389 36.744 298.349 36.3627 297.101 36.016C295.853 35.6693 294.484 35.3227 292.993 34.976C291.503 34.5947 290.133 34.092 288.885 33.468C287.637 32.8093 286.58 31.9947 285.713 31.024C284.881 30.0187 284.465 28.736 284.465 27.176C284.465 25.8933 284.743 24.7667 285.297 23.796C285.887 22.8253 286.667 22.0107 287.637 21.352C288.643 20.6587 289.821 20.1387 291.173 19.792C292.56 19.4453 294.051 19.272 295.645 19.272C297.344 19.272 298.835 19.3933 300.117 19.636C301.4 19.8787 302.509 20.1733 303.445 20.52C304.416 20.8667 305.231 21.2653 305.889 21.716C306.583 22.132 307.172 22.5133 307.657 22.86L304.797 27.488C304.277 27.176 303.671 26.864 302.977 26.552C302.319 26.2053 301.608 25.8933 300.845 25.616C300.117 25.3387 299.337 25.1133 298.505 24.94C297.708 24.7667 296.911 24.68 296.113 24.68C294.657 24.68 293.479 24.8707 292.577 25.252C291.676 25.6333 291.225 26.2227 291.225 27.02C291.225 27.644 291.641 28.1467 292.473 28.528C293.34 28.9093 294.397 29.2733 295.645 29.62C296.893 29.932 298.263 30.2787 299.753 30.66C301.244 31.0413 302.613 31.544 303.861 32.168C305.109 32.7573 306.149 33.5373 306.981 34.508C307.848 35.4787 308.281 36.7267 308.281 38.252C308.281 40.8867 307.311 42.9667 305.369 44.492C303.463 45.9827 300.62 46.728 296.841 46.728C293.86 46.728 291.277 46.2947 289.093 45.428C286.944 44.5267 285.211 43.4867 283.893 42.308L287.013 37.42C287.464 37.8013 288.053 38.2347 288.781 38.72C289.544 39.1707 290.393 39.5867 291.329 39.968C292.265 40.3493 293.253 40.6787 294.293 40.956C295.368 41.1987 296.425 41.32 297.465 41.32C298.575 41.32 299.528 41.1293 300.325 40.748C301.123 40.3667 301.521 39.7253 301.521 38.824Z" fill="white"/>
</g>
<defs>
<filter id="filter0_dd" x="0.496094" y="9.59961" width="309.785" height="37.128" filterUnits="userSpaceOnUse" color-interpolation-filters="sRGB">
<feFlood flood-opacity="0" result="BackgroundImageFix"/>
<feColorMatrix in="SourceAlpha" type="matrix" values="0 0 0 0 0 0 0 0 0 0 0 0 0 0 0 0 0 0 127 0"/>
<feOffset dx="-2"/>
<feColorMatrix type="matrix" values="0 0 0 0 0.356863 0 0 0 0 1 0 0 0 0 0.854902 0 0 0 1 0"/>
<feBlend mode="normal" in2="BackgroundImageFix" result="effect1_dropShadow"/>
<feColorMatrix in="SourceAlpha" type="matrix" values="0 0 0 0 0 0 0 0 0 0 0 0 0 0 0 0 0 0 127 0"/>
<feOffset dx="2"/>
<feColorMatrix type="matrix" values="0 0 0 0 1 0 0 0 0 0.282353 0 0 0 0 0.745098 0 0 0 1 0"/>
<feBlend mode="normal" in2="effect1_dropShadow" result="effect2_dropShadow"/>
<feBlend mode="normal" in="SourceGraphic" in2="effect2_dropShadow" result="shape"/>
</filter>
</defs>
</svg>
