<svg width="183" height="68" viewBox="0 0 183 68" fill="none" xmlns="http://www.w3.org/2000/svg">
<path d="M9.01576 21.4493H16.2085C17.3023 21.4493 18.2249 21.0957 18.9762 20.3886C19.7385 19.6815 20.1197 18.676 20.1197 17.3723C20.1197 16.4111 19.722 15.5492 18.9265 14.7869C18.131 14.0135 17.225 13.6268 16.2085 13.6268H5.96631V35.1055H4.77305V12.4335H16.2085C17.5564 12.4335 18.7442 12.9362 19.7717 13.9417C20.7992 14.936 21.313 16.0796 21.313 17.3723C21.313 18.9633 20.8158 20.2394 19.8214 21.2007C18.827 22.1619 17.6227 22.6425 16.2085 22.6425H9.01576V21.4493ZM9.01576 23.8358H16.2085C17.9321 23.8358 19.4126 23.2336 20.6501 22.0293C21.8875 20.814 22.5062 19.2616 22.5062 17.3723C22.5062 15.7481 21.8709 14.3228 20.6003 13.0964C19.3408 11.859 17.8768 11.2402 16.2085 11.2402H3.57979V35.1055H2.38652V10.047H16.2085C17.5233 10.047 18.7552 10.384 19.9043 11.0579C21.0644 11.7319 21.987 12.6379 22.672 13.7759C23.357 14.9029 23.6995 16.1017 23.6995 17.3723C23.6995 19.5489 22.9592 21.3719 21.4787 22.8414C20.0092 24.2998 18.2525 25.0291 16.2085 25.0291H9.01576V23.8358ZM9.01576 26.2223H16.2085C17.7553 26.2223 19.1916 25.8411 20.5175 25.0788C21.8433 24.3164 22.904 23.2557 23.6995 21.8967C24.495 20.5267 24.8928 19.0185 24.8928 17.3723C24.8928 15.8807 24.495 14.483 23.6995 13.1793C22.9151 11.8645 21.8544 10.8149 20.5175 10.0304C19.1806 9.24595 17.7442 8.85372 16.2085 8.85372H1.19326V35.1055H0V7.66046H16.2085C17.9431 7.66046 19.5728 8.10793 21.0975 9.00288C22.6223 9.88678 23.8321 11.08 24.727 12.5827C25.633 14.0742 26.086 15.6708 26.086 17.3723C26.086 19.339 25.6607 21.0681 24.8099 22.5597C23.9702 24.0512 22.8267 25.2169 21.3793 26.0566L24.4619 35.1055H23.2023L20.2523 26.6201C19.8104 26.7968 19.4734 26.9184 19.2414 26.9847L22.0091 35.1055H20.7495L18.0481 27.2664C17.9487 27.2885 17.5951 27.3272 16.9874 27.3824L19.5562 35.1055H18.2967L15.761 27.4156H14.6838L17.1034 35.1055H15.8439L13.4076 27.4156H9.01576V26.2223ZM8.35283 35.1055H7.15957V14.82H16.2085C16.9487 14.82 17.584 15.0742 18.1144 15.5824C18.6558 16.0796 18.9265 16.6762 18.9265 17.3723C18.9265 19.2948 18.0205 20.256 16.2085 20.256H9.01576V19.0627H16.2085C16.6836 19.0627 17.0537 18.9412 17.3189 18.6981C17.5951 18.444 17.7332 18.0021 17.7332 17.3723C17.7332 16.9856 17.584 16.6652 17.2857 16.4111C16.9985 16.1459 16.6394 16.0133 16.2085 16.0133H8.35283V35.1055Z" fill="#00D2A3"/>
<path d="M34.6046 35.1055H33.4113V7.66046H34.6046V35.1055ZM32.2181 35.1055H31.0248V7.66046H32.2181V35.1055ZM29.8316 35.1055H28.6383V7.66046H29.8316V35.1055ZM36.9911 29.1392H49.6861V30.3324H36.9911V31.5257H49.6861V32.719H36.9911V33.9122H49.6861V35.1055H35.7979V7.66046H49.6861V8.85372H36.9911V10.047H49.6861V11.2402H36.9911V12.4335H49.6861V13.6268H36.9911V18.3998H43.5043V19.5931H36.9911V20.7863H43.5043V21.9796H36.9911V23.1729H43.5043V24.3661H36.9911V29.1392Z" fill="#00D2A3"/>
<path d="M73.3857 25.5428C73.3857 25.1119 73.2531 24.8247 72.9879 24.681C72.7338 24.5374 72.3581 24.4656 71.8609 24.4656H64.171V23.2723H71.8609C73.6729 23.2723 74.5789 24.0291 74.5789 25.5428C74.5789 26.3936 74.3303 27.0068 73.8331 27.3824C73.3359 27.7581 72.6785 27.9459 71.8609 27.9459H64.171V26.7527H71.8609C72.8774 26.7527 73.3857 26.3494 73.3857 25.5428ZM63.5081 35.1055H62.3148V14.82H71.8609C72.6123 14.82 73.2531 15.0521 73.7834 15.5161C74.3138 15.9691 74.5789 16.5381 74.5789 17.2231C74.5789 18.1291 74.3303 18.7865 73.8331 19.1953C73.3359 19.5931 72.6785 19.792 71.8609 19.792H64.171V18.5987H71.8609C72.8774 18.5987 73.3857 18.1402 73.3857 17.2231C73.3857 16.8475 73.242 16.5547 72.9548 16.3448C72.6675 16.1238 72.3029 16.0133 71.8609 16.0133H63.5081V35.1055ZM64.171 20.9852H71.8609C72.9548 20.9852 73.8773 20.6593 74.6286 20.0074C75.391 19.3445 75.7722 18.4164 75.7722 17.2231C75.7722 16.2619 75.3744 15.4222 74.5789 14.704C73.7945 13.9859 72.8885 13.6268 71.8609 13.6268H61.1216V35.1055H59.9283V12.4335H71.8609C73.2199 12.4335 74.4077 12.9141 75.4242 13.8754C76.4517 14.8256 76.9655 15.9415 76.9655 17.2231C76.9655 18.2286 76.7279 19.1069 76.2528 19.8583C75.7888 20.6096 75.159 21.1896 74.3635 21.5984C76.0981 22.2172 76.9655 23.4767 76.9655 25.3771C76.9655 26.8797 76.4683 28.084 75.4739 28.99C74.4795 29.885 73.2752 30.3324 71.8609 30.3324H64.171V29.1392H71.8609C72.9548 29.1392 73.8773 28.8132 74.6286 28.1614C75.391 27.4984 75.7722 26.5704 75.7722 25.3771C75.7722 24.5705 75.4849 23.8579 74.9104 23.2392C74.3359 22.6204 73.4906 22.2613 72.3747 22.1619C72.2642 22.173 72.093 22.1785 71.8609 22.1785H64.171V20.9852ZM79.352 17.2231C79.352 18.77 78.8051 20.1676 77.7112 21.4161C78.8051 22.6315 79.352 23.9518 79.352 25.3771C79.352 26.7582 79.0039 28.0177 78.3079 29.1558C77.6228 30.2827 76.7058 31.1611 75.5567 31.7909C74.4187 32.4096 73.1868 32.719 71.8609 32.719H64.171V31.5257H71.8609C73.5845 31.5257 75.0651 30.9512 76.3025 29.8021C77.54 28.642 78.1587 27.167 78.1587 25.3771C78.1587 24.7363 77.993 24.0291 77.6615 23.2557C77.3411 22.4713 76.8936 21.8746 76.3191 21.4658C77.5455 20.3168 78.1587 18.9025 78.1587 17.2231C78.1587 15.61 77.5289 14.2124 76.2694 13.0301C75.0098 11.8369 73.5403 11.2402 71.8609 11.2402H58.7351V35.1055H57.5418V10.047H71.8609C73.1757 10.047 74.4077 10.3729 75.5567 11.0248C76.7169 11.6656 77.6394 12.544 78.3244 13.6599C79.0095 14.7648 79.352 15.9525 79.352 17.2231ZM79.0702 21.4824C80.0536 20.1676 80.5452 18.7479 80.5452 17.2231C80.5452 15.7316 80.1475 14.3449 79.352 13.0633C78.5675 11.7706 77.5068 10.7486 76.1699 9.99727C74.833 9.2349 73.3967 8.85372 71.8609 8.85372H56.3485V35.1055H55.1553V7.66046H71.8609C73.6066 7.66046 75.2363 8.09136 76.75 8.95316C78.2747 9.81496 79.4846 10.9861 80.3795 12.4667C81.2855 13.9361 81.7385 15.5216 81.7385 17.2231C81.7385 18.8473 81.28 20.2726 80.3629 21.499C81.28 22.7696 81.7385 24.0623 81.7385 25.3771C81.7385 26.8576 81.4733 28.2166 80.943 29.4541C80.4127 30.6805 79.6945 31.7025 78.7885 32.5201C77.8935 33.3377 76.8494 33.973 75.6562 34.426C74.4629 34.879 73.1978 35.1055 71.8609 35.1055H64.171V33.9122H71.8609C73.0211 33.9122 74.1315 33.6968 75.1921 33.2659C76.2528 32.8239 77.1754 32.2273 77.9598 31.476C78.7443 30.7247 79.3685 29.8187 79.8326 28.758C80.3077 27.6973 80.5452 26.5704 80.5452 25.3771C80.5452 24.8468 80.4182 24.2114 80.1641 23.4712C79.921 22.7199 79.5564 22.0569 79.0702 21.4824Z" fill="#E1E1E1"/>
<path d="M93.4391 21.4493H100.632C101.726 21.4493 102.648 21.0957 103.4 20.3886C104.162 19.6815 104.543 18.676 104.543 17.3723C104.543 16.4111 104.145 15.5492 103.35 14.7869C102.554 14.0135 101.648 13.6268 100.632 13.6268H90.3896V35.1055H89.1964V12.4335H100.632C101.98 12.4335 103.167 12.9362 104.195 13.9417C105.223 14.936 105.736 16.0796 105.736 17.3723C105.736 18.9633 105.239 20.2394 104.245 21.2007C103.25 22.1619 102.046 22.6425 100.632 22.6425H93.4391V21.4493ZM93.4391 23.8358H100.632C102.355 23.8358 103.836 23.2336 105.073 22.0293C106.311 20.814 106.93 19.2616 106.93 17.3723C106.93 15.7481 106.294 14.3228 105.024 13.0964C103.764 11.859 102.3 11.2402 100.632 11.2402H88.0031V35.1055H86.8099V10.047H100.632C101.947 10.047 103.179 10.384 104.328 11.0579C105.488 11.7319 106.41 12.6379 107.095 13.7759C107.78 14.9029 108.123 16.1017 108.123 17.3723C108.123 19.5489 107.383 21.3719 105.902 22.8414C104.433 24.2998 102.676 25.0291 100.632 25.0291H93.4391V23.8358ZM93.4391 26.2223H100.632C102.179 26.2223 103.615 25.8411 104.941 25.0788C106.267 24.3164 107.327 23.2557 108.123 21.8967C108.918 20.5267 109.316 19.0185 109.316 17.3723C109.316 15.8807 108.918 14.483 108.123 13.1793C107.338 11.8645 106.278 10.8149 104.941 10.0304C103.604 9.24595 102.168 8.85372 100.632 8.85372H85.6166V35.1055H84.4233V7.66046H100.632C102.366 7.66046 103.996 8.10793 105.521 9.00288C107.046 9.88678 108.255 11.08 109.15 12.5827C110.056 14.0742 110.509 15.6708 110.509 17.3723C110.509 19.339 110.084 21.0681 109.233 22.5597C108.394 24.0512 107.25 25.2169 105.803 26.0566L108.885 35.1055H107.626L104.676 26.6201C104.234 26.7968 103.897 26.9184 103.665 26.9847L106.432 35.1055H105.173L102.471 27.2664C102.372 27.2885 102.018 27.3272 101.411 27.3824L103.98 35.1055H102.72L100.184 27.4156H99.1071L101.527 35.1055H100.267L97.831 27.4156H93.4391V26.2223ZM92.7762 35.1055H91.5829V14.82H100.632C101.372 14.82 102.007 15.0742 102.538 15.5824C103.079 16.0796 103.35 16.6762 103.35 17.3723C103.35 19.2948 102.444 20.256 100.632 20.256H93.4391V19.0627H100.632C101.107 19.0627 101.477 18.9412 101.742 18.6981C102.018 18.444 102.157 18.0021 102.157 17.3723C102.157 16.9856 102.007 16.6652 101.709 16.4111C101.422 16.1459 101.063 16.0133 100.632 16.0133H92.7762V35.1055Z" fill="#E1E1E1"/>
<path d="M124.911 27.051L125.392 25.8577H129.469L129.95 27.051H124.911ZM123.983 29.4375L124.447 28.2442H130.397L130.911 29.4375H123.983ZM123.055 31.824L123.519 30.6308H131.342L131.839 31.824H123.055ZM113.36 35.1055H112.067L122.923 7.66046H124.215L135.054 35.1055H133.778L123.569 9.26805L113.36 35.1055ZM123.718 12.102L124.398 13.6268L115.912 35.1055H114.636L123.718 12.102ZM125.044 15.2509L125.674 16.8917L118.498 35.1055H117.205L125.044 15.2509ZM126.304 18.5324L126.933 20.2063L121.05 35.1055H119.774L126.304 18.5324ZM142.761 35.1055H141.468L130.629 7.66046H131.905L142.761 35.1055ZM129.336 7.66046L140.192 35.1055H138.916L128.06 7.66046H129.336ZM126.768 7.66046L137.623 35.1055H136.33L125.491 7.66046H126.768Z" fill="#E1E1E1"/>
<path d="M152.008 7.66046H153.202V35.1055H152.008V7.66046ZM149.622 7.66046H150.815V35.1055H149.622V7.66046ZM147.235 7.66046H148.429V35.1055H147.235V7.66046ZM144.849 7.66046H146.042V35.1055H144.849V7.66046Z" fill="#E1E1E1"/>
<path d="M175.84 21.8967L174.647 19.9245V7.66046H175.84V21.8967ZM178.227 25.808L177.034 23.8026V7.66046H178.227V25.808ZM180.614 29.769L179.42 27.747V7.66046H180.614V29.769ZM163.51 20.8692L164.703 22.8414V35.1055H163.51V20.8692ZM161.124 16.958L162.317 18.9633V35.1055H161.124V16.958ZM158.737 12.997L159.93 15.0189V35.1055H158.737V12.997ZM159.151 7.66046H160.544L177.415 35.1055H176.023L159.151 7.66046ZM161.969 7.66046H163.378L180.232 35.1055H178.807L161.969 7.66046ZM164.77 7.66046H166.162L181.807 33.1664V7.66046H183V35.1055C183 35.1055 182.53 35.1055 181.591 35.1055L164.77 7.66046ZM157.544 9.59951V35.1055H156.351V7.66046C156.351 7.66046 156.826 7.66046 157.776 7.66046L174.597 35.1055H173.222L157.544 9.59951Z" fill="#E1E1E1"/>
<rect x="63" y="64" width="56" height="4" fill="#00D2A3"/>
</svg>
