<svg width="170" height="40" viewBox="0 0 170 40" fill="none" xmlns="http://www.w3.org/2000/svg">
<path d="M8.37529 20.16H15.0571C16.0732 20.16 16.9302 19.8276 17.6281 19.163C18.3364 18.4984 18.6905 17.5534 18.6905 16.328C18.6905 15.4246 18.321 14.6146 17.582 13.898C16.843 13.1711 16.0013 12.8077 15.0571 12.8077H5.54247V32.9953H4.43398V11.6861H15.0571C16.3092 11.6861 17.4126 12.1586 18.3671 13.1036C19.3217 14.0382 19.799 15.113 19.799 16.328C19.799 17.8234 19.3371 19.0228 18.4133 19.9263C17.4896 20.8298 16.3708 21.2815 15.0571 21.2815H8.37529V20.16ZM8.37529 22.403H15.0571C16.6582 22.403 18.0336 21.8371 19.1831 20.7051C20.3327 19.5628 20.9074 18.1038 20.9074 16.328C20.9074 14.8015 20.3173 13.4619 19.1369 12.3092C17.9669 11.1461 16.6069 10.5646 15.0571 10.5646H3.32548V32.9953H2.21699V9.44305H15.0571C16.2785 9.44305 17.4229 9.75978 18.4903 10.3932C19.568 11.0267 20.425 11.8782 21.0614 12.9479C21.6978 14.0071 22.0159 15.1338 22.0159 16.328C22.0159 18.3738 21.3283 20.0873 19.9529 21.4684C18.5878 22.8392 16.9559 23.5246 15.0571 23.5246H8.37529V22.403ZM8.37529 24.6461H15.0571C16.494 24.6461 17.8283 24.2878 19.06 23.5713C20.2916 22.8548 21.2769 21.8578 22.0159 20.5805C22.7549 19.2928 23.1244 17.8753 23.1244 16.328C23.1244 14.9261 22.7549 13.6125 22.0159 12.3871C21.2872 11.1513 20.3019 10.1648 19.06 9.42748C17.818 8.69017 16.4837 8.32152 15.0571 8.32152H1.10849V32.9953H0V7.19998H15.0571C16.6685 7.19998 18.1824 7.62056 19.5988 8.46171C21.0152 9.29248 22.1391 10.414 22.9705 11.8263C23.8121 13.2282 24.2329 14.7288 24.2329 16.328C24.2329 18.1765 23.8378 19.8017 23.0475 21.2036C22.2674 22.6055 21.2051 23.7011 19.8605 24.4903L22.7241 32.9953H21.5541L18.8136 25.0199C18.4031 25.1861 18.09 25.3003 17.8745 25.3626L20.4456 32.9953H19.2755L16.766 25.6274C16.6736 25.6482 16.3452 25.6846 15.7807 25.7365L18.167 32.9953H16.9969L14.6414 25.7676H13.6406L15.8884 32.9953H14.7183L12.4552 25.7676H8.37529V24.6461ZM7.75946 32.9953H6.65097V13.9292H15.0571C15.7447 13.9292 16.3349 14.168 16.8276 14.6457C17.3305 15.113 17.582 15.6738 17.582 16.328C17.582 18.135 16.7403 19.0384 15.0571 19.0384H8.37529V17.9169H15.0571C15.4984 17.9169 15.8422 17.8027 16.0886 17.5742C16.3452 17.3353 16.4735 16.92 16.4735 16.328C16.4735 15.9646 16.3349 15.6634 16.0578 15.4246C15.7909 15.1753 15.4573 15.0507 15.0571 15.0507H7.75946V32.9953Z" fill="#00D2A3"/>
<path d="M32.1464 32.9953H31.0379V7.19998H32.1464V32.9953ZM29.9294 32.9953H28.8209V7.19998H29.9294V32.9953ZM27.7124 32.9953H26.6039V7.19998H27.7124V32.9953ZM34.3633 27.3876H46.1565V28.5092H34.3633V29.6307H46.1565V30.7522H34.3633V31.8738H46.1565V32.9953H33.2548V7.19998H46.1565V8.32152H34.3633V9.44305H46.1565V10.5646H34.3633V11.6861H46.1565V12.8077H34.3633V17.2938H40.4139V18.4153H34.3633V19.5369H40.4139V20.6584H34.3633V21.7799H40.4139V22.9015H34.3633V27.3876Z" fill="#00D2A3"/>
<path d="M68.1723 24.0074C68.1723 23.6024 68.0491 23.3324 67.8028 23.1974C67.5667 23.0624 67.2178 22.9949 66.7559 22.9949H59.6123V21.8734H66.7559C68.4392 21.8734 69.2808 22.5848 69.2808 24.0074C69.2808 24.8071 69.0499 25.3834 68.588 25.7365C68.1261 26.0896 67.5154 26.2661 66.7559 26.2661H59.6123V25.1446H66.7559C67.7002 25.1446 68.1723 24.7655 68.1723 24.0074ZM58.9964 32.9953H57.8879V13.9292H66.7559C67.4538 13.9292 68.0491 14.1473 68.5418 14.5834C69.0345 15.0092 69.2808 15.544 69.2808 16.1878C69.2808 17.0394 69.0499 17.6573 68.588 18.0415C68.1261 18.4153 67.5154 18.6023 66.7559 18.6023H59.6123V17.4807H66.7559C67.7002 17.4807 68.1723 17.0498 68.1723 16.1878C68.1723 15.8348 68.0389 15.5596 67.772 15.3623C67.5052 15.1546 67.1665 15.0507 66.7559 15.0507H58.9964V32.9953ZM59.6123 19.7238H66.7559C67.772 19.7238 68.6291 19.4175 69.327 18.8048C70.0352 18.1817 70.3893 17.3094 70.3893 16.1878C70.3893 15.2844 70.0198 14.4952 69.2808 13.8202C68.5521 13.1452 67.7104 12.8077 66.7559 12.8077H56.7794V32.9953H55.671V11.6861H66.7559C68.0184 11.6861 69.1217 12.1379 70.066 13.0413C71.0205 13.9344 71.4978 14.9832 71.4978 16.1878C71.4978 17.1328 71.2771 17.9584 70.8358 18.6646C70.4047 19.3707 69.8197 19.9159 69.0807 20.3001C70.6921 20.8817 71.4978 22.0655 71.4978 23.8517C71.4978 25.264 71.0359 26.3959 70.1122 27.2474C69.1884 28.0886 68.0697 28.5092 66.7559 28.5092H59.6123V27.3876H66.7559C67.772 27.3876 68.6291 27.0813 69.327 26.4686C70.0352 25.8455 70.3893 24.9732 70.3893 23.8517C70.3893 23.0936 70.1224 22.4238 69.5887 21.8423C69.055 21.2607 68.2698 20.9232 67.2332 20.8298C67.1305 20.8401 66.9714 20.8453 66.7559 20.8453H59.6123V19.7238ZM73.7148 16.1878C73.7148 17.6417 73.2067 18.9553 72.1906 20.1288C73.2067 21.2711 73.7148 22.5121 73.7148 23.8517C73.7148 25.1497 73.3915 26.3336 72.7449 27.4032C72.1085 28.4624 71.2566 29.288 70.1892 29.8799C69.132 30.4615 67.9876 30.7522 66.7559 30.7522H59.6123V29.6307H66.7559C68.3571 29.6307 69.7324 29.0907 70.882 28.0107C72.0315 26.9203 72.6063 25.534 72.6063 23.8517C72.6063 23.2494 72.4523 22.5848 72.1444 21.8578C71.8468 21.1205 71.4311 20.5598 70.8974 20.1755C72.0366 19.0955 72.6063 17.7663 72.6063 16.1878C72.6063 14.6717 72.0212 13.358 70.8512 12.2469C69.6811 11.1254 68.316 10.5646 66.7559 10.5646H54.5625V32.9953H53.454V9.44305H66.7559C67.9773 9.44305 69.1217 9.7494 70.1892 10.3621C71.2669 10.9644 72.1239 11.79 72.7602 12.8388C73.3966 13.8773 73.7148 14.9936 73.7148 16.1878ZM73.4531 20.1911C74.3665 18.9553 74.8233 17.6209 74.8233 16.1878C74.8233 14.7859 74.4538 13.4827 73.7148 12.278C72.986 11.063 72.0007 10.1025 70.7588 9.39632C69.5169 8.67979 68.1826 8.32152 66.7559 8.32152H52.3455V32.9953H51.237V7.19998H66.7559C68.3776 7.19998 69.8915 7.60498 71.2976 8.41498C72.7141 9.22498 73.8379 10.3257 74.6693 11.7173C75.511 13.0984 75.9318 14.5886 75.9318 16.1878C75.9318 17.7144 75.5058 19.054 74.6539 20.2067C75.5058 21.4009 75.9318 22.6159 75.9318 23.8517C75.9318 25.2432 75.6854 26.5205 75.1928 27.6836C74.7001 28.8363 74.033 29.7969 73.1913 30.5653C72.36 31.3338 71.39 31.9309 70.2815 32.3567C69.173 32.7824 67.9978 32.9953 66.7559 32.9953H59.6123V31.8738H66.7559C67.8336 31.8738 68.8651 31.6713 69.8504 31.2663C70.8358 30.8509 71.6928 30.2901 72.4215 29.584C73.1503 28.8778 73.7302 28.0263 74.1613 27.0294C74.6026 26.0324 74.8233 24.9732 74.8233 23.8517C74.8233 23.3532 74.7052 22.7561 74.4692 22.0603C74.2434 21.3542 73.9047 20.7311 73.4531 20.1911Z" fill="#E1E1E1"/>
<path d="M86.8012 20.16H93.4829C94.4991 20.16 95.3561 19.8276 96.054 19.163C96.7622 18.4984 97.1163 17.5534 97.1163 16.328C97.1163 15.4246 96.7468 14.6146 96.0078 13.898C95.2688 13.1711 94.4272 12.8077 93.4829 12.8077H83.9684V32.9953H82.8599V11.6861H93.4829C94.7351 11.6861 95.8385 12.1586 96.793 13.1036C97.7476 14.0382 98.2248 15.113 98.2248 16.328C98.2248 17.8234 97.763 19.0228 96.8392 19.9263C95.9155 20.8298 94.7967 21.2815 93.4829 21.2815H86.8012V20.16ZM86.8012 22.403H93.4829C95.0841 22.403 96.4595 21.8371 97.609 20.7051C98.7586 19.5628 99.3333 18.1038 99.3333 16.328C99.3333 14.8015 98.7432 13.4619 97.5628 12.3092C96.3927 11.1461 95.0328 10.5646 93.4829 10.5646H81.7514V32.9953H80.6429V9.44305H93.4829C94.7043 9.44305 95.8488 9.75978 96.9162 10.3932C97.9939 11.0267 98.8509 11.8782 99.4873 12.9479C100.124 14.0071 100.442 15.1338 100.442 16.328C100.442 18.3738 99.7541 20.0873 98.3788 21.4684C97.0137 22.8392 95.3818 23.5246 93.4829 23.5246H86.8012V22.403ZM86.8012 24.6461H93.4829C94.9199 24.6461 96.2542 24.2878 97.4858 23.5713C98.7175 22.8548 99.7028 21.8578 100.442 20.5805C101.181 19.2928 101.55 17.8753 101.55 16.328C101.55 14.9261 101.181 13.6125 100.442 12.3871C99.7131 11.1513 98.7278 10.1648 97.4858 9.42748C96.2439 8.69017 94.9096 8.32152 93.4829 8.32152H79.5344V32.9953H78.4259V7.19998H93.4829C95.0944 7.19998 96.6083 7.62056 98.0247 8.46171C99.4411 9.29248 100.565 10.414 101.396 11.8263C102.238 13.2282 102.659 14.7288 102.659 16.328C102.659 18.1765 102.264 19.8017 101.473 21.2036C100.693 22.6055 99.631 23.7011 98.2864 24.4903L101.15 32.9953H99.9799L97.2395 25.0199C96.829 25.1861 96.5159 25.3003 96.3004 25.3626L98.8715 32.9953H97.7014L95.1919 25.6274C95.0995 25.6482 94.7711 25.6846 94.2065 25.7365L96.5929 32.9953H95.4228L93.0673 25.7676H92.0665L94.3143 32.9953H93.1442L90.8811 25.7676H86.8012V24.6461ZM86.1853 32.9953H85.0769V13.9292H93.4829C94.1706 13.9292 94.7608 14.168 95.2535 14.6457C95.7564 15.113 96.0078 15.6738 96.0078 16.328C96.0078 18.135 95.1662 19.0384 93.4829 19.0384H86.8012V17.9169H93.4829C93.9243 17.9169 94.2681 17.8027 94.5145 17.5742C94.7711 17.3353 94.8993 16.92 94.8993 16.328C94.8993 15.9646 94.7608 15.6634 94.4837 15.4246C94.2168 15.1753 93.8832 15.0507 93.4829 15.0507H86.1853V32.9953Z" fill="#E1E1E1"/>
<path d="M116.038 25.4249L116.484 24.3034H120.272L120.718 25.4249H116.038ZM115.176 27.668L115.607 26.5465H121.134L121.611 27.668H115.176ZM114.313 29.9111L114.744 28.7895H122.011L122.473 29.9111H114.313ZM105.307 32.9953H104.106L114.19 7.19998H115.391L125.46 32.9953H124.274L114.791 8.71094L105.307 32.9953ZM114.929 11.3746L115.56 12.8077L107.678 32.9953H106.492L114.929 11.3746ZM116.161 14.3342L116.746 15.8763L110.08 32.9953H108.879L116.161 14.3342ZM117.331 17.4184L117.916 18.9917L112.451 32.9953H111.265L117.331 17.4184ZM132.619 32.9953H131.418L121.349 7.19998H122.535L132.619 32.9953ZM120.148 7.19998L130.233 32.9953H129.047L118.963 7.19998H120.148ZM117.762 7.19998L127.846 32.9953H126.645L116.577 7.19998H117.762Z" fill="#E1E1E1"/>
<path d="M141.21 7.19998H142.318V32.9953H141.21V7.19998ZM138.993 7.19998H140.101V32.9953H138.993V7.19998ZM136.776 7.19998H137.884V32.9953H136.776V7.19998ZM134.559 7.19998H135.667V32.9953H134.559V7.19998Z" fill="#E1E1E1"/>
<path d="M163.349 20.5805L162.24 18.7269V7.19998H163.349V20.5805ZM165.566 24.2567L164.457 22.3719V7.19998H165.566V24.2567ZM167.783 27.9795L166.674 26.0792V7.19998H167.783V27.9795ZM151.894 19.6148L153.003 21.4684V32.9953H151.894V19.6148ZM149.677 15.9386L150.786 17.8234V32.9953H149.677V15.9386ZM147.46 12.2157L148.569 14.1161V32.9953H147.46V12.2157ZM147.845 7.19998H149.139L164.811 32.9953H163.518L147.845 7.19998ZM150.463 7.19998H151.771L167.429 32.9953H166.105L150.463 7.19998ZM153.065 7.19998H154.358L168.891 31.1728V7.19998H170V32.9953C170 32.9953 169.564 32.9953 168.691 32.9953L153.065 7.19998ZM146.352 9.02248V32.9953H145.243V7.19998C145.243 7.19998 145.685 7.19998 146.568 7.19998L162.194 32.9953H160.916L146.352 9.02248Z" fill="#E1E1E1"/>
</svg>
