<svg width="138" height="32" viewBox="0 0 138 32" fill="none" xmlns="http://www.w3.org/2000/svg">
<path d="M7.17896 16.128H12.5873C13.4097 16.128 14.1034 15.8621 14.6683 15.3305C15.2416 14.7988 15.5282 14.0428 15.5282 13.0625C15.5282 12.3397 15.2291 11.6917 14.6309 11.1185C14.0328 10.5369 13.3516 10.2462 12.5873 10.2462H4.88605V26.3963H3.98882V9.34892H12.5873C13.6008 9.34892 14.4939 9.72692 15.2665 10.4829C16.0391 11.2306 16.4254 12.0905 16.4254 13.0625C16.4254 14.2588 16.0516 15.2183 15.3039 15.9411C14.5562 16.6638 13.6506 17.0252 12.5873 17.0252H7.17896V16.128ZM7.17896 17.9224H12.5873C13.8833 17.9224 14.9965 17.4697 15.9269 16.5641C16.8574 15.6503 17.3226 14.4831 17.3226 13.0625C17.3226 11.8412 16.8449 10.7695 15.8896 9.84739C14.9425 8.91693 13.8417 8.4517 12.5873 8.4517H3.09159V26.3963H2.19436V7.55447H12.5873C13.5759 7.55447 14.5022 7.80785 15.3662 8.31462C16.2385 8.82139 16.9322 9.50262 17.4472 10.3583C17.9623 11.2057 18.2199 12.1071 18.2199 13.0625C18.2199 14.6991 17.6632 16.0698 16.55 17.1748C15.4451 18.2714 14.1242 18.8197 12.5873 18.8197H7.17896V17.9224ZM7.17896 19.7169H12.5873C13.7503 19.7169 14.8303 19.4303 15.8273 18.8571C16.8242 18.2838 17.6217 17.4863 18.2199 16.4644C18.818 15.4343 19.1171 14.3003 19.1171 13.0625C19.1171 11.9409 18.818 10.89 18.2199 9.90969C17.63 8.92108 16.8325 8.13185 15.8273 7.54201C14.822 6.95216 13.742 6.65724 12.5873 6.65724H1.29713V26.3963H0.399902V5.76001H12.5873C13.8916 5.76001 15.1169 6.09647 16.2634 6.76939C17.4099 7.43401 18.3196 8.33123 18.9925 9.46108C19.6737 10.5826 20.0143 11.7831 20.0143 13.0625C20.0143 14.5412 19.6945 15.8414 19.0548 16.9629C18.4234 18.0844 17.5636 18.9609 16.4753 19.5923L18.7931 26.3963H17.846L15.6279 20.016C15.2956 20.1489 15.0422 20.2403 14.8677 20.2901L16.9488 26.3963H16.0017L13.9705 20.502C13.8957 20.5186 13.6299 20.5477 13.173 20.5892L15.1045 26.3963H14.1574L12.2508 20.6141H11.4408L13.2602 26.3963H12.3131L10.4813 20.6141H7.17896V19.7169ZM6.6805 26.3963H5.78327V11.1434H12.5873C13.1439 11.1434 13.6216 11.3345 14.0203 11.7166C14.4274 12.0905 14.6309 12.5391 14.6309 13.0625C14.6309 14.508 13.9497 15.2308 12.5873 15.2308H7.17896V14.3335H12.5873C12.9445 14.3335 13.2228 14.2421 13.4222 14.0594C13.6299 13.8683 13.7337 13.536 13.7337 13.0625C13.7337 12.7717 13.6216 12.5308 13.3973 12.3397C13.1813 12.1403 12.9113 12.0406 12.5873 12.0406H6.6805V26.3963Z" fill="#00D2A3"/>
<path d="M26.4195 26.3963H25.5223V5.76001H26.4195V26.3963ZM24.6251 26.3963H23.7278V5.76001H24.6251V26.3963ZM22.8306 26.3963H21.9334V5.76001H22.8306V26.3963ZM28.214 21.9101H37.7595V22.8074H28.214V23.7046H37.7595V24.6018H28.214V25.499H37.7595V26.3963H27.3168V5.76001H37.7595V6.65724H28.214V7.55447H37.7595V8.4517H28.214V9.34892H37.7595V10.2462H28.214V13.8351H33.1114V14.7323H28.214V15.6295H33.1114V16.5268H28.214V17.424H33.1114V18.3212H28.214V21.9101Z" fill="#00D2A3"/>
<path d="M55.5797 19.206C55.5797 18.882 55.48 18.666 55.2807 18.558C55.0896 18.45 54.8071 18.396 54.4333 18.396H48.6511V17.4988H54.4333C55.7957 17.4988 56.477 18.0678 56.477 19.206C56.477 19.8457 56.29 20.3067 55.9162 20.5892C55.5423 20.8717 55.048 21.0129 54.4333 21.0129H48.6511V20.1157H54.4333C55.1976 20.1157 55.5797 19.8124 55.5797 19.206ZM48.1527 26.3963H47.2554V11.1434H54.4333C54.9982 11.1434 55.48 11.3178 55.8788 11.6668C56.2776 12.0074 56.477 12.4352 56.477 12.9503C56.477 13.6315 56.29 14.1258 55.9162 14.4332C55.5423 14.7323 55.048 14.8818 54.4333 14.8818H48.6511V13.9846H54.4333C55.1976 13.9846 55.5797 13.6398 55.5797 12.9503C55.5797 12.6678 55.4717 12.4477 55.2557 12.2898C55.0397 12.1237 54.7656 12.0406 54.4333 12.0406H48.1527V26.3963ZM48.6511 15.7791H54.4333C55.2557 15.7791 55.9494 15.534 56.5143 15.0438C57.0876 14.5454 57.3742 13.8475 57.3742 12.9503C57.3742 12.2275 57.0751 11.5962 56.477 11.0562C55.8871 10.5162 55.2059 10.2462 54.4333 10.2462H46.3582V26.3963H45.461V9.34892H54.4333C55.4551 9.34892 56.3482 9.71031 57.1125 10.4331C57.8851 11.1475 58.2714 11.9866 58.2714 12.9503C58.2714 13.7063 58.0928 14.3668 57.7356 14.9317C57.3867 15.4966 56.9131 15.9328 56.315 16.2401C57.6193 16.7054 58.2714 17.6524 58.2714 19.0814C58.2714 20.2112 57.8976 21.1167 57.1499 21.798C56.4022 22.4709 55.4967 22.8074 54.4333 22.8074H48.6511V21.9101H54.4333C55.2557 21.9101 55.9494 21.6651 56.5143 21.1749C57.0876 20.6764 57.3742 19.9786 57.3742 19.0814C57.3742 18.4749 57.1582 17.9391 56.7262 17.4738C56.2942 17.0086 55.6587 16.7386 54.8196 16.6638C54.7365 16.6721 54.6077 16.6763 54.4333 16.6763H48.6511V15.7791ZM60.0659 12.9503C60.0659 14.1134 59.6546 15.1643 58.8322 16.1031C59.6546 17.0169 60.0659 18.0097 60.0659 19.0814C60.0659 20.1198 59.8042 21.0669 59.2808 21.9226C58.7657 22.77 58.0762 23.4304 57.2122 23.904C56.3565 24.3692 55.4302 24.6018 54.4333 24.6018H48.6511V23.7046H54.4333C55.7293 23.7046 56.8425 23.2726 57.773 22.4086C58.7034 21.5363 59.1686 20.4272 59.1686 19.0814C59.1686 18.5995 59.044 18.0678 58.7948 17.4863C58.5539 16.8964 58.2174 16.4478 57.7854 16.1404C58.7076 15.2765 59.1686 14.2131 59.1686 12.9503C59.1686 11.7374 58.6951 10.6865 57.748 9.79754C56.801 8.90031 55.696 8.4517 54.4333 8.4517H44.5638V26.3963H43.6665V7.55447H54.4333C55.4219 7.55447 56.3482 7.79954 57.2122 8.2897C58.0845 8.77154 58.7782 9.432 59.2933 10.2711C59.8083 11.1018 60.0659 11.9949 60.0659 12.9503ZM59.854 16.1529C60.5934 15.1643 60.9631 14.0968 60.9631 12.9503C60.9631 11.8288 60.664 10.7862 60.0659 9.82246C59.476 8.85046 58.6785 8.082 57.6733 7.51708C56.668 6.94385 55.588 6.65724 54.4333 6.65724H42.7693V26.3963H41.8721V5.76001H54.4333C55.7459 5.76001 56.9713 6.08401 58.1094 6.73201C59.2559 7.38001 60.1656 8.26062 60.8385 9.37385C61.5197 10.4788 61.8603 11.6709 61.8603 12.9503C61.8603 14.1715 61.5156 15.2432 60.826 16.1654C61.5156 17.1208 61.8603 18.0928 61.8603 19.0814C61.8603 20.1946 61.6609 21.2164 61.2622 22.1469C60.8634 23.069 60.3234 23.8375 59.6422 24.4523C58.9693 25.067 58.1842 25.5447 57.287 25.8853C56.3897 26.226 55.4385 26.3963 54.4333 26.3963H48.6511V25.499H54.4333C55.3056 25.499 56.1405 25.337 56.938 25.013C57.7356 24.6807 58.4293 24.2321 59.0191 23.6672C59.609 23.1023 60.0783 22.421 60.4273 21.6235C60.7845 20.826 60.9631 19.9786 60.9631 19.0814C60.9631 18.6826 60.8676 18.2049 60.6765 17.6483C60.4937 17.0834 60.2196 16.5849 59.854 16.1529Z" fill="#E1E1E1"/>
<path d="M70.6582 16.128H76.0665C76.8889 16.128 77.5826 15.8621 78.1475 15.3305C78.7208 14.7988 79.0074 14.0428 79.0074 13.0625C79.0074 12.3397 78.7083 11.6917 78.1101 11.1185C77.512 10.5369 76.8308 10.2462 76.0665 10.2462H68.3652V26.3963H67.468V9.34892H76.0665C77.08 9.34892 77.9731 9.72692 78.7457 10.4829C79.5183 11.2306 79.9046 12.0905 79.9046 13.0625C79.9046 14.2588 79.5308 15.2183 78.7831 15.9411C78.0354 16.6638 77.1298 17.0252 76.0665 17.0252H70.6582V16.128ZM70.6582 17.9224H76.0665C77.3624 17.9224 78.4757 17.4697 79.4061 16.5641C80.3366 15.6503 80.8018 14.4831 80.8018 13.0625C80.8018 11.8412 80.3241 10.7695 79.3688 9.84739C78.4217 8.91693 77.3209 8.4517 76.0665 8.4517H66.5708V26.3963H65.6736V7.55447H76.0665C77.0551 7.55447 77.9814 7.80785 78.8454 8.31462C79.7177 8.82139 80.4114 9.50262 80.9264 10.3583C81.4415 11.2057 81.6991 12.1071 81.6991 13.0625C81.6991 14.6991 81.1424 16.0698 80.0292 17.1748C78.9243 18.2714 77.6034 18.8197 76.0665 18.8197H70.6582V17.9224ZM70.6582 19.7169H76.0665C77.2295 19.7169 78.3095 19.4303 79.3064 18.8571C80.3034 18.2838 81.1009 17.4863 81.6991 16.4644C82.2972 15.4343 82.5963 14.3003 82.5963 13.0625C82.5963 11.9409 82.2972 10.89 81.6991 9.90969C81.1092 8.92108 80.3117 8.13185 79.3064 7.54201C78.3012 6.95216 77.2212 6.65724 76.0665 6.65724H64.7763V26.3963H63.8791V5.76001H76.0665C77.3708 5.76001 78.5961 6.09647 79.7426 6.76939C80.8891 7.43401 81.7987 8.33123 82.4717 9.46108C83.1529 10.5826 83.4935 11.7831 83.4935 13.0625C83.4935 14.5412 83.1737 15.8414 82.534 16.9629C81.9026 18.0844 81.0427 18.9609 79.9544 19.5923L82.2723 26.3963H81.3252L79.1071 20.016C78.7748 20.1489 78.5214 20.2403 78.3469 20.2901L80.428 26.3963H79.4809L77.4497 20.502C77.3749 20.5186 77.1091 20.5477 76.6521 20.5892L78.5837 26.3963H77.6366L75.73 20.6141H74.92L76.7394 26.3963H75.7923L73.9605 20.6141H70.6582V19.7169ZM70.1597 26.3963H69.2625V11.1434H76.0665C76.6231 11.1434 77.1008 11.3345 77.4995 11.7166C77.9066 12.0905 78.1101 12.5391 78.1101 13.0625C78.1101 14.508 77.4289 15.2308 76.0665 15.2308H70.6582V14.3335H76.0665C76.4237 14.3335 76.702 14.2421 76.9014 14.0594C77.1091 13.8683 77.2129 13.536 77.2129 13.0625C77.2129 12.7717 77.1008 12.5308 76.8764 12.3397C76.6604 12.1403 76.3905 12.0406 76.0665 12.0406H70.1597V26.3963Z" fill="#E1E1E1"/>
<path d="M94.3226 20.34L94.6839 19.4427H97.7495L98.1109 20.34H94.3226ZM93.6247 22.1344L93.9736 21.2372H98.4473L98.8336 22.1344H93.6247ZM92.9269 23.9289L93.2758 23.0317H99.1576L99.5315 23.9289H92.9269ZM85.6369 26.3963H84.6649L92.8272 5.76001H93.7992L101.949 26.3963H100.989L93.3132 6.96878L85.6369 26.3963ZM93.4253 9.09969L93.9363 10.2462L87.556 26.3963H86.5964L93.4253 9.09969ZM94.4223 11.4674L94.8958 12.7011L89.5 26.3963H88.528L94.4223 11.4674ZM95.3693 13.9348L95.8429 15.1934L91.419 26.3963H90.4595L95.3693 13.9348ZM107.744 26.3963H106.772L98.6218 5.76001H99.5813L107.744 26.3963ZM97.6498 5.76001L105.812 26.3963H104.853L96.6903 5.76001H97.6498ZM95.7183 5.76001L103.881 26.3963H102.909L94.7587 5.76001H95.7183Z" fill="#E1E1E1"/>
<path d="M114.697 5.76001H115.594V26.3963H114.697V5.76001ZM112.903 5.76001H113.8V26.3963H112.903V5.76001ZM111.108 5.76001H112.005V26.3963H111.108V5.76001ZM109.314 5.76001H110.211V26.3963H109.314V5.76001Z" fill="#E1E1E1"/>
<path d="M132.617 16.4644L131.72 14.9815V5.76001H132.617V16.4644ZM134.411 19.4054L133.514 17.8975V5.76001H134.411V19.4054ZM136.206 22.3837L135.308 20.8634V5.76001H136.206V22.3837ZM123.345 15.6918L124.243 17.1748V26.3963H123.345V15.6918ZM121.551 12.7509L122.448 14.2588V26.3963H121.551V12.7509ZM119.757 9.77262L120.654 11.2929V26.3963H119.757V9.77262ZM120.068 5.76001H121.115L133.801 26.3963H132.754L120.068 5.76001ZM122.187 5.76001H123.246L135.919 26.3963H134.847L122.187 5.76001ZM124.292 5.76001H125.339L137.103 24.9383V5.76001H138V26.3963C138 26.3963 137.647 26.3963 136.941 26.3963L124.292 5.76001ZM118.859 7.21801V26.3963H117.962V5.76001C117.962 5.76001 118.319 5.76001 119.034 5.76001L131.682 26.3963H130.648L118.859 7.21801Z" fill="#E1E1E1"/>
</svg>
